<?xml version="1.0" encoding="UTF-8"?>
<svg width="100pt" height="100pt" version="1.1" viewBox="0 0 100 100" xmlns="http://www.w3.org/2000/svg">
 <path d="m67.906 25.969c-0.82031 0.03125-1.5352 0.55469-1.8125 1.3242-0.27344 0.77344-0.050781 1.6328 0.5625 2.1758l20.188 18.531h-79.031c-1.0469 0.050781-1.957 1.0469-1.9062 2.0938s1.0469 1.957 2.0938 1.9062h78.844l-20.188 18.5c-0.39453 0.35547-0.63281 0.85547-0.66406 1.3867-0.027344 0.53125 0.16016 1.0508 0.51562 1.4453 0.35938 0.39844 0.85938 0.63281 1.3906 0.65625 0.53125 0.027344 1.0508-0.16016 1.4453-0.51953l24-22c0.41797-0.37891 0.66016-0.91797 0.66016-1.4844s-0.24219-1.1055-0.66016-1.4844l-24-22c-0.39062-0.35938-0.90625-0.55078-1.4375-0.53125z"/>
</svg>
